<?xml version="1.0" encoding="UTF-8"?>
<svg xmlns="http://www.w3.org/2000/svg" viewBox="0 0 192 192"><path d="M92 95.324l8 3.2V108H84.612L92 160h-8l-7.47-52H39.47L32 160h-8l7.388-52H16V32h84v40.676l-8-3.2V40H24v60h68v-4.676zM176 84v28h-8v48h-8v-56h8V84c0-8.822-7.178-16-16-16a16.01 16.01 0 0 0-14.67 9.602c-.827 1.89-6.65 16.447-9.615 23.88l-7.43-2.963c.351-.883 8.63-21.64 9.714-24.12a24.009 24.009 0 0 1 13.528-12.852C139.015 58.715 136 53.71 136 48c0-8.822 7.178-16 16-16s16 7.178 16 16c0 5.71-3.016 10.716-7.529 13.549C169.536 64.98 176 73.747 176 84zm-16-36c0-4.411-3.589-8-8-8s-8 3.589-8 8 3.589 8 8 8 8-3.589 8-8zm-24 112h8v-56h-8v56zM74.515 79.714l40 16 2.97-7.428-40-16-2.97 7.428z" style="fill: #ffffff;"/></svg>
